HIERARCHY
ROOT Hips
{
	OFFSET 0.000000 0.000000 0.000000
	CHANNELS 6 Xposition Yposition Zposition Zrotation Yrotation Xrotation 
	JOINT LowerBack
	{
		OFFSET 0.000000 0.000000 0.000000
		CHANNELS 3 Zrotation Yrotation Xrotation
		JOINT Spine
		{
			OFFSET 0.028270 2.035590 -0.193380
			CHANNELS 3 Zrotation Yrotation Xrotation
			JOINT Spine1
			{
				OFFSET 0.056720 2.048850 -0.042750
				CHANNELS 3 Zrotation Yrotation Xrotation
				JOINT Neck
				{
					OFFSET 0.000000 0.000000 0.000000
					CHANNELS 3 Zrotation Yrotation Xrotation
					JOINT Neck1
					{
						OFFSET -0.054170 1.746240 0.172020
						CHANNELS 3 Zrotation Yrotation Xrotation
						JOINT Head
						{
							OFFSET 0.104070 1.761360 -0.123970
							CHANNELS 3 Zrotation Yrotation Xrotation
							End Site
							{
								OFFSET 0.000000 0.000000 0.000000
							}
						}
					}
				}
				JOINT LeftShoulder
				{
					OFFSET 0.000000 0.000000 0.000000
					CHANNELS 3 Zrotation Yrotation Xrotation
					JOINT LeftArm
					{
						OFFSET 3.362410 1.200890 -0.311210
						CHANNELS 3 Zrotation Yrotation Xrotation
						JOINT LeftForeArm
						{
							OFFSET 4.983000 -0.000000 -0.000000
							CHANNELS 3 Zrotation Yrotation Xrotation
							JOINT LeftHand
							{
								OFFSET 3.483560 -0.000000 -0.000000
								CHANNELS 3 Zrotation Yrotation Xrotation
								JOINT LeftFingerBase
								{
									OFFSET 0.000000 0.000000 0.000000
									CHANNELS 3 Zrotation Yrotation Xrotation
									JOINT LeftHandIndex1
									{
										OFFSET 0.715260 -0.000000 -0.000000
										CHANNELS 3 Zrotation Yrotation Xrotation
										End Site
										{
											OFFSET 0.000000 0.000000 0.000000
										}
									}
								}
								JOINT LThumb
								{
									OFFSET 0.000000 0.000000 0.000000
									CHANNELS 3 Zrotation Yrotation Xrotation
									End Site
									{
										OFFSET 0.000000 0.000000 0.000000
									}
								}
							}
						}
					}
				}
				JOINT RightShoulder
				{
					OFFSET 0.000000 0.000000 0.000000
					CHANNELS 3 Zrotation Yrotation Xrotation
					JOINT RightArm
					{
						OFFSET -3.136600 1.374050 -0.404650
						CHANNELS 3 Zrotation Yrotation Xrotation
						JOINT RightForeArm
						{
							OFFSET -5.241900 -0.000000 -0.000000
							CHANNELS 3 Zrotation Yrotation Xrotation
							JOINT RightHand
							{
								OFFSET -3.444170 -0.000000 -0.000000
								CHANNELS 3 Zrotation Yrotation Xrotation
								JOINT RightFingerBase
								{
									OFFSET 0.000000 0.000000 0.000000
									CHANNELS 3 Zrotation Yrotation Xrotation
									JOINT RightHandIndex1
									{
										OFFSET -0.622530 -0.000000 -0.000000
										CHANNELS 3 Zrotation Yrotation Xrotation
										End Site
										{
											OFFSET 0.000000 0.000000 0.000000
										}
									}
								}
								JOINT RThumb
								{
									OFFSET 0.000000 0.000000 0.000000
									CHANNELS 3 Zrotation Yrotation Xrotation
									End Site
									{
										OFFSET 0.000000 0.000000 0.000000
									}
								}
							}
						}
					}
				}
			}
		}
	}
}
}
MOTION
Frames: 10
Frame Time: 0.008333
4.393892 17.427257 0.865275 -178.526846 -86.940204 -169.777947 -2.910082 0.318298 -5.802162 -1.453656 0.437579 -4.404600 -6.510858 0.641352 -3.275431 7.124206 -4.205165 2.643424 -3.489919 -0.377088 2.795426 0.000000 0.000000 0.000000 14.178414 8.289151 -3.768386 -78.710688 -36.939811 9.834245 178.222380 -51.614854 179.818419 10.847585 -2.479852 -0.335758 -0.159597 1.018204 -0.000000 0.000000 0.000000 0.000000 0.000000 0.000000 0.000000 1.063193 -2.093155 -6.598012 95.931323 41.730437 28.243428 -177.160029 61.333608 179.706692 -18.299868 15.446437 -2.734053 0.227055 -1.193970 -0.000000 0.000000 0.000000 0.000000 0.000000 0.000000 0.000000 
4.385730 17.427571 0.850370 -178.464197 -87.447874 -169.767282 -2.932131 0.337568 -5.841213 -1.456328 0.458016 -4.394762 -6.504111 0.663284 -3.197875 7.087819 -4.288596 2.527467 -3.481554 -0.375156 2.763081 0.000000 0.000000 0.000000 14.027899 8.515064 -3.708636 -78.627639 -36.655807 9.958743 178.304050 -51.572581 179.820494 10.754753 -2.457504 -0.330629 -0.162432 1.016354 -0.000000 0.000000 0.000000 0.000000 0.000000 0.000000 0.000000 0.936402 -2.137804 -6.628934 95.963573 41.750336 28.180914 -177.174151 61.251937 179.706807 -18.329997 15.414515 -2.733799 0.230722 -1.194667 -0.000000 0.000000 0.000000 0.000000 0.000000 0.000000 0.000000 
4.377433 17.428023 0.835082 -178.459619 -87.925981 -169.690477 -2.970160 0.356491 -5.884181 -1.460701 0.479481 -4.386069 -6.494632 0.685777 -3.122777 7.061018 -4.378364 2.403511 -3.471732 -0.373033 2.728442 0.000000 0.000000 0.000000 13.879626 8.731611 -3.643814 -78.564276 -36.305682 10.085660 178.386893 -51.546087 179.822931 10.640359 -2.440747 -0.325398 -0.164230 1.014406 -0.000000 0.000000 0.000000 0.000000 0.000000 0.000000 0.000000 0.807892 -2.181861 -6.656504 95.989825 41.766571 28.111104 -177.190003 61.154115 179.706899 -18.366149 15.375806 -2.733440 0.234978 -1.195479 -0.000000 0.000000 0.000000 0.000000 0.000000 0.000000 0.000000 
4.369141 17.428610 0.819314 -178.529235 -88.366154 -169.528422 -3.025147 0.374690 -5.934491 -1.466659 0.501639 -4.379620 -6.480678 0.708384 -3.052070 7.044779 -4.474819 2.270820 -3.460746 -0.370734 2.691330 0.000000 0.000000 0.000000 13.742730 8.930275 -3.573292 -78.517242 -35.870893 10.193356 178.465772 -51.524683 179.825522 10.517618 -2.430984 -0.320563 -0.165270 1.012361 -0.000000 0.000000 0.000000 0.000000 0.000000 0.000000 0.000000 0.679167 -2.225332 -6.679779 96.011801 41.779135 28.040859 -177.208217 61.041406 179.706940 -18.410207 15.334573 -2.733870 0.239924 -1.196551 -0.000000 0.000000 0.000000 0.000000 0.000000 0.000000 0.000000 
4.361016 17.429334 0.803064 -178.701392 -88.758259 -169.257013 -3.095935 0.391046 -5.984489 -1.473862 0.523456 -4.374428 -6.461257 0.730131 -2.987251 7.038164 -4.573427 2.128763 -3.449102 -0.368276 2.651445 0.000000 0.000000 0.000000 13.617704 9.113444 -3.494589 -78.475404 -35.347331 10.261702 178.538284 -51.498747 179.828009 10.402429 -2.427804 -0.316523 -0.166144 1.010234 -0.000000 0.000000 0.000000 0.000000 0.000000 0.000000 0.000000 0.553716 -2.262738 -6.699356 96.031307 41.792976 27.978064 -177.229879 60.920077 179.706925 -18.460930 15.297380 -2.736093 0.245484 -1.198024 -0.000000 0.000000 0.000000 0.000000 0.000000 0.000000 0.000000 
4.353132 17.430158 0.786274 -178.980526 -89.082711 -168.874957 -3.181842 0.407785 -6.034385 -1.482174 0.547036 -4.370865 -6.434629 0.753032 -2.929347 7.039490 -4.675283 1.975359 -3.437835 -0.365703 2.608270 0.000000 0.000000 0.000000 13.510869 9.277046 -3.406354 -78.432490 -34.713779 10.266888 178.600289 -51.453342 179.830186 10.309055 -2.429726 -0.313678 -0.167285 1.007910 -0.000000 0.000000 0.000000 0.000000 0.000000 0.000000 0.000000 0.434130 -2.292809 -6.715217 96.053017 41.810938 27.934436 -177.256770 60.795454 179.706875 -18.517834 15.267046 -2.740507 0.251737 -1.199983 -0.000000 0.000000 0.000000 0.000000 0.000000 0.000000 0.000000 
4.345479 17.431001 0.768990 -179.315214 -89.325698 -168.433371 -3.280557 0.424180 -6.083951 -1.491051 0.571453 -4.369028 -6.399765 0.776200 -2.878452 7.045727 -4.778858 1.809097 -3.428006 -0.363063 2.561344 0.000000 0.000000 0.000000 13.421451 9.422786 -3.306227 -78.379385 -33.959805 10.190536 178.650831 -51.377384 179.831893 10.248596 -2.434834 -0.312126 -0.169191 1.005307 -0.000000 0.000000 0.000000 0.000000 0.000000 0.000000 0.000000 0.323558 -2.312663 -6.728637 96.082820 41.838355 27.921070 -177.290692 60.675854 179.706847 -18.577018 15.246725 -2.747111 0.258584 -1.202470 -0.000000 0.000000 0.000000 0.000000 0.000000 0.000000 0.000000 
4.337977 17.431781 0.751309 -179.565455 -89.467524 -168.073174 -3.390704 0.441151 -6.135180 -1.500300 0.597426 -4.369406 -6.355705 0.800328 -2.834464 7.053429 -4.884085 1.628579 -3.421089 -0.360432 2.510276 0.000000 0.000000 0.000000 13.347694 9.551437 -3.192341 -78.310792 -33.072285 10.018645 178.689637 -51.259718 179.833057 10.227612 -2.441437 -0.311864 -0.172205 1.002319 -0.000000 0.000000 0.000000 0.000000 0.000000 0.000000 0.000000 0.226556 -2.319644 -6.740797 96.127913 41.880756 27.950516 -177.334050 60.571835 179.706924 -18.634158 15.237350 -2.755406 0.265959 -1.205452 -0.000000 0.000000 0.000000 0.000000 0.000000 0.000000 0.000000 
4.330342 17.432430 0.733327 -179.564341 -89.483751 -167.960594 -3.512503 0.460539 -6.192326 -1.509993 0.626679 -4.372857 -6.301330 0.827015 -2.796964 7.059548 -4.993134 1.432636 -3.418685 -0.357904 2.454798 0.000000 0.000000 0.000000 13.289475 9.661372 -3.063478 -78.228491 -32.030966 9.741552 178.716395 -51.090510 179.833706 10.246467 -2.448299 -0.312790 -0.176367 0.998784 -0.000000 0.000000 0.000000 0.000000 0.000000 0.000000 0.000000 0.147844 -2.312720 -6.752846 96.197471 41.942434 28.036233 -177.389494 60.492293 179.707208 -18.685167 15.236899 -2.764488 0.273869 -1.208841 -0.000000 0.000000 0.000000 0.000000 0.000000 0.000000 0.000000 
4.322674 17.432826 0.715302 -179.208218 -89.351415 -168.208737 -3.642624 0.483109 -6.252634 -1.519664 0.659657 -4.378906 -6.237405 0.856751 -2.765722 7.061612 -5.105353 1.221538 -3.421990 -0.355559 2.394989 0.000000 0.000000 0.000000 13.235465 9.756882 -2.918067 -78.132296 -30.833315 9.360992 178.734691 -50.874140 179.833957 10.299799 -2.456454 -0.314800 -0.181636 0.994664 -0.000000 0.000000 0.000000 0.000000 0.000000 0.000000 0.000000 0.093425 -2.287418 -6.766916 96.300034 42.028928 28.189817 -177.458919 60.447191 179.707792 -18.725265 15.243495 -2.773263 0.282218 -1.212505 -0.000000 0.000000 0.000000 0.000000 0.000000 0.000000 0.000000 
